<?xml version="1.0" standalone="no"?>
<!DOCTYPE svg PUBLIC "-//W3C//DTD SVG 20010904//EN"
 "http://www.w3.org/TR/2001/REC-SVG-20010904/DTD/svg10.dtd">
<svg version="1.0" xmlns="http://www.w3.org/2000/svg"
 width="300.000000pt" height="300.000000pt" viewBox="0 0 300.000000 300.000000"
 preserveAspectRatio="xMidYMid meet">
<metadata>
Created by potrace 1.14, written by Peter Selinger 2001-2017
</metadata>
<g transform="translate(0.000000,300.000000) scale(0.100000,-0.100000)"
fill="#000000" stroke="none">
<path d="M287 2989 c-106 -25 -201 -104 -251 -209 l-31 -65 0 -1215 0 -1215
31 -65 c39 -83 101 -145 184 -184 l65 -31 1215 0 1215 0 65 31 c83 39 145 101
184 184 l31 65 0 1215 0 1215 -31 65 c-39 83 -101 145 -184 184 l-65 31 -1195
2 c-675 0 -1211 -3 -1233 -8z m1344 -1045 c144 -42 276 -171 310 -304 l13 -50
292 0 c166 0 304 -4 318 -10 15 -5 34 -25 43 -45 16 -33 16 -37 0 -70 -9 -20
-28 -40 -43 -45 -14 -6 -152 -10 -318 -10 l-292 0 -13 -50 c-25 -96 -113 -206
-212 -263 -132 -76 -326 -76 -458 0 -96 56 -169 143 -207 248 l-22 60 -304 5
c-328 5 -325 5 -348 60 -10 24 -10 36 0 60 23 55 20 55 348 60 l304 5 22 60
c50 138 157 242 294 286 72 23 200 24 273 3z"/>
<path d="M1447 1779 c-215 -33 -305 -303 -158 -472 79 -89 226 -116 336 -62
97 47 155 142 155 255 0 182 -149 307 -333 279z"/>
</g>
</svg>
